PathFileType	4	(X/Y/Z)	C:/Users/opensim2020/Desktop/walking_exp_matlab/subject01_walking10_straight_02.trc																																																																																																																															
DataRate	CameraRate	NumFrames	NumMarkers	Units	OrigDataRate	OrigDataStartFrame	OrigNumFrames																																																																																																																											
100	100	5	43	mm	100	2084	262																																																																																																																											
Frame#	Time	LFHD			RFHD			LBHD			RBHD			C7			T10			CLAV			STRN			RBAK			LSHO			LUPA			LELB			LFRM			LWRA			LWRB			LFIN			RSHO			RUPA			RELB			RFRM			RWRA			RWRB			RFIN			LASI			RASI			LPSI			RPSI			LTHI			LKNE			LTIB			LANK			LHEE			LTOE			RTHI			RKNE			RTIB			RANK			RHEE			RTOE			*39			*40			*41			*42		
		X1	Y1	Z1	X2	Y2	Z2	X3	Y3	Z3	X4	Y4	Z4	X5	Y5	Z5	X6	Y6	Z6	X7	Y7	Z7	X8	Y8	Z8	X9	Y9	Z9	X10	Y10	Z10	X11	Y11	Z11	X12	Y12	Z12	X13	Y13	Z13	X14	Y14	Z14	X15	Y15	Z15	X16	Y16	Z16	X17	Y17	Z17	X18	Y18	Z18	X19	Y19	Z19	X20	Y20	Z20	X21	Y21	Z21	X22	Y22	Z22	X23	Y23	Z23	X24	Y24	Z24	X25	Y25	Z25	X26	Y26	Z26	X27	Y27	Z27	X28	Y28	Z28	X29	Y29	Z29	X30	Y30	Z30	X31	Y31	Z31	X32	Y32	Z32	X33	Y33	Z33	X34	Y34	Z34	X35	Y35	Z35	X36	Y36	Z36	X37	Y37	Z37	X38	Y38	Z38	X39	Y39	Z39	X40	Y40	Z40	X41	Y41	Z41	X42	Y42	Z42	X43	Y43	Z43
																																																																																																																																		
66	0.65	-431.69394	1672.55652	1047.03992	-391.33432	1676.61951	1154.32959	-545.00842	1636.48132	1083.9707	-506.22891	1641.03052	1198.73877	-585.74353	1439.84998	1117.02417	-626.76111	1147.41895	1115.91968	-446.45776	1367.10815	1108.31226	-406.11502	1211.90625	1099.77539	-643.06616	1243.87842	1189.97437	-515.0174	1401.82129	950.29272	-561.30261	1217.99438	868.26147	-580.54492	1068.20215	871.82465	-548.28326	959.3103	845.00897	-472.33661	842.29803	858.03278	-528.97327	838.12183	838.95477	-482.82852	767.89008	826.11212	-502.28427	1390.76563	1262.7583	-546.28955	1186.76733	1363.83704	-535.45514	1062.31213	1367.71179	-484.35336	951.70062	1394.84705	-381.80362	854.84552	1371.10815	-423.14795	846.31091	1411.1438	-371.47766	777.72241	1407.44971	-461.23639	942.6554	999.88751	-460.56717	933.69281	1217.45862	-646.23987	952.06512	1051.17224	-645.46216	953.61517	1195.95056	-413.27719	626.8219	925.65002	-385.25095	495.07846	943.31671	-420.54044	311.81799	932.48987	-420.12839	89.95363	978.23199	-453.45825	53.09784	1037.34363	-278.50494	66.77963	956.0957	-538.68146	601.85541	1257.83337	-544.58673	444.20889	1226.09546	-611.76489	280.33307	1228.77734	-655.02075	80.42442	1170.28333	-706.21808	45.66871	1119.86853	-516.01312	37.87949	1168.50696	-405.42657	1711.39587	1134.77197	-1972.94385	1024.06299	3102.13232	-2012.5	1021.92786	3140.71631	NaN	NaN	NaN
67	0.66	-424.89349	1671.84485	1046.40564	-384.43719	1675.86011	1153.77881	-538.26672	1636.05066	1083.50879	-499.39236	1640.54565	1198.29785	-579.39032	1439.37512	1116.72986	-620.52942	1146.95728	1115.60339	-440.14078	1366.52539	1107.90894	-399.84476	1211.32764	1099.53333	-636.82593	1243.5376	1189.84473	-508.8891	1401.30273	949.93353	-555.7392	1217.48108	868.08191	-575.66028	1067.9353	871.82953	-544.07446	958.78174	844.89819	-468.87	841.28253	857.66827	-525.58191	837.51569	838.49152	-479.97522	766.75861	825.91235	-495.8255	1390.23816	1262.45886	-539.58344	1186.495	1363.73901	-528.55835	1061.97876	1367.74219	-476.91763	951.56378	1394.81787	-373.95123	855.20135	1370.84265	-415.19547	846.52673	1411.01331	-363.07077	778.172	1407.28625	-454.87399	942.1626	999.9939	-454.68701	933.10822	1217.55762	-639.94958	951.68683	1050.85608	-639.38501	953.23566	1195.59119	-408.19394	625.8584	925.62378	-380.00531	494.18417	943.45459	-409.24298	310.00439	932.50366	-400.35645	88.05563	977.90631	-432.06668	50.22825	1037.39136	-257.73242	69.53967	955.63776	-534.586	601.54852	1257.7478	-541.79907	443.71753	1226.07458	-609.86627	280.6033	1228.93445	-654.96942	80.81944	1170.41321	-706.02399	46.27844	1119.80493	-515.94635	37.89153	1168.53943	-398.44116	1710.79932	1134.22473	-1972.99402	1023.87073	3101.95117	-2012.53564	1021.98944	3140.70557	NaN	NaN	NaN
68	0.67	-418.15344	1671.18433	1045.80249	-377.57217	1675.0896	1153.1947	-531.55756	1635.53381	1082.96777	-492.60785	1640.05273	1197.77246	-573.04413	1438.84546	1116.28479	-614.30316	1146.43115	1115.22754	-433.79892	1365.94104	1107.46936	-393.54901	1210.76538	1099.21094	-630.62476	1243.1449	1189.63025	-502.7272	1400.70752	949.43604	-550.02209	1216.98169	867.71729	-570.40729	1067.48328	871.88654	-539.70941	958.20123	844.75494	-465.19827	840.13953	857.29974	-521.98883	836.80762	838.60382	-476.93054	765.57056	825.81158	-489.57364	1389.86731	1261.74609	-532.90771	1186.1571	1363.59119	-521.68994	1061.6366	1367.7085	-469.45911	951.30811	1394.61133	-366.20676	855.5144	1370.48535	-407.34683	846.57715	1410.60291	-354.91147	778.71735	1407.05579	-448.29666	941.56555	1000.06329	-448.77716	932.53827	1217.59229	-633.62299	951.27283	1050.48645	-633.48566	952.8537	1195.17749	-403.0116	624.83337	925.61792	-374.76538	493.35648	943.46484	-398.51846	308.51221	932.18427	-381.26318	86.79366	977.68866	-411.91968	48.00416	1036.927	-237.93958	72.76199	955.40015	-530.60199	601.26654	1257.65649	-539.11462	443.46271	1226.23083	-608.70929	280.66098	1228.74182	-654.49023	81.03636	1170.37085	-705.74512	47.06336	1119.74768	-515.78906	37.57497	1168.55811	-391.58209	1709.89734	1133.61401	-1973.1123	1023.43317	3101.9646	-2012.55457	1021.97809	3140.73657	NaN	NaN	NaN
69	0.68	-411.34418	1670.40503	1045.17847	-370.7619	1674.23633	1152.37878	-524.93506	1635.20422	1082.35974	-485.77539	1639.48792	1197.05334	-566.6524	1438.20032	1115.67163	-608.01715	1145.90466	1114.79712	-427.49185	1365.34778	1106.94775	-387.12549	1210.14575	1098.80298	-624.31134	1242.67249	1189.28149	-496.4267	1400.0896	948.90649	-544.17047	1216.34143	867.35291	-565.21423	1067.03748	871.70715	-535.16876	957.62103	844.48761	-461.32959	839.04785	856.85199	-518.20947	836.14935	838.14764	-473.70779	764.41406	825.55951	-483.0347	1389.44861	1261.40662	-526.25653	1185.7948	1363.30493	-514.82782	1061.25732	1367.56006	-462.15048	951.10205	1394.44189	-358.5249	855.74835	1370.16565	-399.50949	846.58954	1410.35083	-346.73553	778.9458	1406.69641	-441.73828	940.89789	1000.01398	-442.79529	931.85602	1217.61682	-627.17419	950.79565	1050.00073	-627.22693	952.45044	1194.66272	-397.75455	623.7486	925.52985	-369.54633	492.41022	943.4104	-387.91495	307.15637	931.82928	-362.99899	86.10446	977.22418	-392.25793	46.53799	1036.69482	-218.78322	76.18775	955.34442	-526.64026	600.9129	1257.53015	-536.27277	443.13461	1226.24109	-607.12549	280.94424	1228.87854	-654.1662	81.38593	1170.31421	-705.48041	47.68716	1119.61719	-515.76434	37.55836	1168.59631	-384.69708	1709.09766	1132.73389	-1973.13464	1023.53339	3101.91479	-2012.58069	1022.10223	3140.52344	NaN	NaN	NaN
70	0.69	-404.59967	1669.61902	1044.34241	-363.89099	1673.46326	1151.67786	-518.11963	1634.63147	1081.68347	-479.02829	1639.02173	1196.34705	-560.24298	1437.67847	1115.05994	-601.66425	1145.30188	1114.28235	-421.11365	1364.79639	1106.27026	-380.71097	1209.57556	1098.36902	-618.02917	1242.18066	1188.85486	-490.10654	1399.44934	948.25946	-538.17615	1215.72375	866.78827	-559.78406	1066.50171	871.48401	-530.36395	956.95874	844.14093	-457.31738	837.85321	856.35596	-514.07526	835.31927	837.58966	-470.21896	763.30719	825.18396	-476.72836	1388.95874	1260.70715	-519.62054	1185.42676	1363.00928	-507.95721	1060.85425	1367.30225	-454.86551	950.89484	1394.16248	-350.91821	855.88409	1369.72949	-391.83377	846.4856	1409.97571	-338.78717	779.24506	1406.3252	-435.1008	940.1123	999.98413	-436.74963	931.31854	1217.60596	-620.66248	950.2666	1049.43909	-621.12952	952.08704	1194.09119	-392.48889	622.65808	925.34399	-364.28	491.49585	943.22919	-377.68222	306.01028	931.51312	-345.40662	85.57259	976.79462	-374.06213	45.3457	1036.03369	-200.76395	79.56192	955.42596	-522.69495	600.67853	1257.49414	-533.36157	442.68842	1226.34119	-605.53033	281.3772	1228.97742	-653.80719	81.80733	1170.34937	-705.63263	48.58873	1119.63245	-515.59167	37.49016	1168.6825	-377.71304	1708.32886	1132.12732	-1973.18115	1023.44604	3101.96851	-2012.59082	1022.1521	3140.71436	NaN	NaN	NaN
